<?xml version="1.0" encoding="utf-8"?>
<svg viewBox="0 0 500 500" xmlns="http://www.w3.org/2000/svg">
  <path d="M 248.077 38.45 C 169.506 40.598 103.543 103.74 101.386 179.941 C 99.229 230.687 122.877 277.378 161.126 304.904 C 178.134 317.627 186.349 336.802 186.349 355.812 L 313.786 355.812 C 313.786 336.802 322.17 317.627 337.021 304.904 C 375.271 279.531 398.75 235.232 398.75 186.551 C 398.75 104.067 330.879 36.301 248.077 38.45 Z M 186.349 376.967 L 186.349 398.127 C 186.349 422.839 199.62 433.498 219.537 437.796 C 223.353 451.02 235.882 461.6 250.07 461.6 C 264.253 461.6 276.782 451.02 280.598 437.796 C 300.515 433.498 313.786 422.839 313.786 398.127 L 313.786 376.967 L 186.349 376.967 Z" style="fill: rgb(255, 234, 0);" transform="matrix(-1, 0, 0, -1, 499.999954, 500.000275)"/>
</svg>