<?xml version="1.0" encoding="utf-8"?>
<svg viewBox="0 0 350 500" xmlns="http://www.w3.org/2000/svg">
  <path d="M 172.738 0.059 C 80.301 2.601 2.698 77.201 0.16 167.229 C -2.378 227.186 25.443 282.343 70.442 314.872 C 90.452 329.9 100.117 352.557 100.117 375.014 L 250.042 375.014 C 250.042 352.557 259.906 329.9 277.378 314.872 C 322.377 284.886 350 232.558 350 175.044 C 350 77.587 270.152 -2.484 172.738 0.059 Z M 100.117 400.014 L 100.117 425.014 C 100.117 454.2 115.73 466.8 139.161 471.871 C 143.65 487.5 158.39 500 175.083 500 C 191.768 500 206.508 487.5 210.997 471.871 C 234.429 466.8 250.042 454.2 250.042 425.014 L 250.042 400.014 L 100.117 400.014 Z" style="fill: rgb(255, 234, 0);" transform="matrix(-1, 0, 0, -1, 349.999906, 500.000092)"/>
</svg>