<?xml version="1.0" encoding="utf-8"?>
<svg viewBox="0 0 500 500" xmlns="http://www.w3.org/2000/svg">
  <path d="M 102.405 313.454 C 102.405 264.77 125.795 220.468 163.898 195.093 C 178.692 182.369 187.044 163.193 187.044 144.181 L 313.995 144.181 C 313.995 144.729 314 145.272 314.014 145.819 L 109.947 360.293 C 105.055 345.546 102.405 329.788 102.405 313.454 Z M 398.634 320.064 C 396.485 396.271 330.774 459.417 252.502 461.565 C 206.159 462.773 164.507 441.907 136.909 408.757 L 114.142 432.685 L 101.23 420.4 L 355.549 153.109 L 368.461 165.393 L 339.758 195.557 C 377.487 223.145 400.768 269.601 398.634 320.064 Z M 187.044 123.025 L 187.044 101.864 C 187.044 77.15 200.265 66.49 220.105 62.192 C 223.907 48.966 236.388 38.386 250.517 38.386 C 264.651 38.386 277.132 48.966 280.934 62.192 C 300.774 66.49 313.995 77.15 313.995 101.864 L 313.995 123.025 Z" style="fill: rgb(216, 216, 216);"/>
</svg>