<?xml version="1.0" encoding="utf-8"?>
<svg viewBox="0 0 350 500" xmlns="http://www.w3.org/2000/svg">
  <path d="M 1.382 324.964 C 1.382 267.45 28.896 215.111 73.718 185.133 C 91.12 170.101 100.944 147.446 100.944 124.986 L 250.279 124.986 C 250.279 125.633 250.285 126.275 250.302 126.922 L 10.254 380.3 C 4.5 362.877 1.382 344.261 1.382 324.964 Z M 349.841 332.774 C 347.314 422.804 270.017 497.404 177.944 499.941 C 123.43 501.368 74.434 476.717 41.97 437.554 L 15.188 465.824 L 0 451.309 L 299.16 135.534 L 314.348 150.045 L 280.585 185.681 C 324.965 218.273 352.351 273.156 349.841 332.774 Z M 100.944 99.992 L 100.944 74.993 C 100.944 45.796 116.496 33.202 139.834 28.124 C 144.307 12.499 158.989 0 175.609 0 C 192.235 0 206.917 12.499 211.389 28.124 C 234.727 33.202 250.279 45.796 250.279 74.993 L 250.279 99.992 Z" style="fill: rgb(216, 216, 216);"/>
</svg>